<?xml version="1.0" encoding="UTF-8" standalone="no"?>
<!DOCTYPE score-partwise PUBLIC "-//Recordare//DTD MusicXML 2.0 Partwise//EN" "http://www.musicxml.org/dtds/partwise.dtd">
<score-partwise version="2.0"><identification><creator type="composer">Arr. by the Rev. H. Fleetwood Sheppard, M.A.</creator><creator type="poet"></creator><rights>Copyright © &lt;Year&gt; by &lt;Name&gt;</rights><movement-title>Parson Hogg</movement-title><encoding><encoding-date>2015-01-31</encoding-date><software>http://www.niversoft.com/nwc</software></encoding></identification><movement-number/><part-list><score-part id="part-1"><midi-instrument id="part-1"><midi-channel>3</midi-channel><midi-program>53</midi-program><part-name>Vocal</part-name></midi-instrument></score-part><score-part id="part-2"><midi-instrument id="part-2"><midi-channel>1</midi-channel><midi-program>1</midi-program><part-name>Piano</part-name></midi-instrument></score-part><score-part id="part-3"><midi-instrument id="part-3"><midi-channel>2</midi-channel><midi-program>1</midi-program><part-name></part-name></midi-instrument></score-part></part-list><part id="part-1"><measure number="1"><attributes><clef><line>2</line><sign>G</sign></clef><divisions>480</divisions><key><fifths>3</fifths><mode>major</mode></key><time><beats>6</beats><beat-type>8</beat-type></time></attributes><note><duration>240</duration><rest/><staff>1</staff><type>eighth</type><voice>1</voice></note></measure><measure number="2"><note><duration>1440</duration><rest/><staff>1</staff><type>whole</type><voice>1</voice></note></measure><measure number="3"><note><duration>1440</duration><rest/><staff>1</staff><type>whole</type><voice>1</voice></note></measure><measure number="4"><note><duration>1440</duration><rest/><staff>1</staff><type>whole</type><voice>1</voice></note></measure><measure number="5"><note><duration>1440</duration><rest/><staff>1</staff><type>whole</type><voice>1</voice></note></measure><measure number="6"><note><duration>1440</duration><rest/><staff>1</staff><type>whole</type><voice>1</voice></note></measure><measure number="7"><note><duration>1440</duration><rest/><staff>1</staff><type>whole</type><voice>1</voice></note></measure><measure number="8"><note><duration>1440</duration><rest/><staff>1</staff><type>whole</type><voice>1</voice></note></measure><measure number="9"><note><duration>1440</duration><rest/><staff>1</staff><type>whole</type><voice>1</voice></note></measure><measure number="10"><note><duration>1440</duration><rest/><staff>1</staff><type>whole</type><voice>1</voice></note></measure><measure number="11"><note><duration>1440</duration><rest/><staff>1</staff><type>whole</type><voice>1</voice></note></measure><measure number="12"><barline location="right"><bar-style>light-light</bar-style></barline><note><duration>480</duration><rest/><staff>1</staff><type>quarter</type><voice>1</voice></note><note><duration>240</duration><rest/><staff>1</staff><type>eighth</type><voice>1</voice></note><note><duration>480</duration><rest/><staff>1</staff><type>quarter</type><voice>1</voice></note></measure><measure number="13"><note><duration>240</duration><lyric><syllabic>single</syllabic><text>Mess</text></lyric><pitch><octave>4</octave><step>A</step></pitch><staff>1</staff><type>eighth</type><voice>1</voice></note></measure><measure number="14"><note><duration>480</duration><lyric><syllabic>begin</syllabic><text>Par</text></lyric><pitch><octave>4</octave><step>A</step></pitch><staff>1</staff><type>quarter</type><voice>1</voice></note><note><duration>240</duration><lyric><syllabic>end</syllabic><text>son</text></lyric><pitch><alter>1</alter><octave>5</octave><step>C</step></pitch><staff>1</staff><type>eighth</type><voice>1</voice></note><note><duration>480</duration><lyric><syllabic>single</syllabic><text>Hogg</text></lyric><pitch><octave>4</octave><step>E</step></pitch><staff>1</staff><type>quarter</type><voice>1</voice></note><note><duration>240</duration><lyric><syllabic>single</syllabic><text>shall</text></lyric><pitch><alter>1</alter><octave>4</octave><step>F</step></pitch><staff>1</staff><type>eighth</type><voice>1</voice></note></measure><measure number="15"><note><duration>480</duration><lyric><syllabic>single</syllabic><text>now</text></lyric><pitch><octave>4</octave><step>A</step></pitch><staff>1</staff><type>quarter</type><voice>1</voice></note><note><duration>240</duration><lyric><syllabic>begin</syllabic><text>main</text></lyric><pitch><alter>1</alter><octave>5</octave><step>C</step></pitch><staff>1</staff><type>eighth</type><voice>1</voice></note><note><duration>480</duration><lyric><syllabic>end</syllabic><text>tain</text></lyric><pitch><octave>4</octave><step>A</step></pitch><staff>1</staff><type>quarter</type><voice>1</voice></note><note><duration>240</duration><lyric><syllabic>single</syllabic><text>The</text></lyric><pitch><octave>4</octave><step>E</step></pitch><staff>1</staff><type>eighth</type><voice>1</voice></note></measure><measure number="16"><note><duration>480</duration><lyric><syllabic>begin</syllabic><text>bur</text></lyric><pitch><octave>4</octave><step>A</step></pitch><staff>1</staff><type>quarter</type><voice>1</voice></note><note><duration>240</duration><lyric><syllabic>end</syllabic><text>den</text></lyric><pitch><octave>4</octave><step>A</step></pitch><staff>1</staff><type>eighth</type><voice>1</voice></note><note><beam>begin</beam><duration>240</duration><lyric><syllabic>single</syllabic><text>of</text></lyric><pitch><octave>4</octave><step>B</step></pitch><staff>1</staff><stem>up</stem><type>eighth</type><voice>1</voice></note><note><beam>end</beam><duration>240</duration><lyric><syllabic>single</syllabic><text> </text></lyric><pitch><octave>4</octave><step>A</step></pitch><staff>1</staff><stem>up</stem><type>eighth</type><voice>1</voice></note><note><duration>240</duration><lyric><syllabic>single</syllabic><text>my</text></lyric><pitch><octave>4</octave><step>B</step></pitch><staff>1</staff><type>eighth</type><voice>1</voice></note></measure><measure number="17"><note><dot/><duration>720</duration><lyric><syllabic>single</syllabic><text>song,</text></lyric><pitch><alter>1</alter><octave>5</octave><step>C</step></pitch><staff>1</staff><type>quarter</type><voice>1</voice></note><note><duration>480</duration><lyric><syllabic>single</syllabic><text>sir!</text></lyric><pitch><octave>4</octave><step>A</step></pitch><staff>1</staff><type>quarter</type><voice>1</voice></note><note><duration>240</duration><lyric><syllabic>single</syllabic><text>A</text></lyric><pitch><octave>4</octave><step>E</step></pitch><staff>1</staff><type>eighth</type><voice>1</voice></note></measure><measure number="18"><note><duration>480</duration><lyric><syllabic>begin</syllabic><text>sin</text></lyric><pitch><octave>4</octave><step>A</step></pitch><staff>1</staff><type>quarter</type><voice>1</voice></note><note><duration>240</duration><lyric><syllabic>end</syllabic><text>gle</text></lyric><pitch><alter>1</alter><octave>5</octave><step>C</step></pitch><staff>1</staff><type>eighth</type><voice>1</voice></note><note><duration>480</duration><lyric><syllabic>single</syllabic><text>life</text></lyric><pitch><alter>1</alter><octave>4</octave><step>G</step></pitch><staff>1</staff><type>quarter</type><voice>1</voice></note><note><duration>240</duration><lyric><syllabic>begin</syllabic><text>per</text></lyric><pitch><octave>4</octave><step>B</step></pitch><staff>1</staff><type>eighth</type><voice>1</voice></note></measure><measure number="19"><note><duration>480</duration><lyric><syllabic>end</syllabic><text>force</text></lyric><pitch><alter>1</alter><octave>4</octave><step>F</step></pitch><staff>1</staff><type>quarter</type><voice>1</voice></note><note><duration>240</duration><lyric><syllabic>single</syllabic><text>he</text></lyric><pitch><octave>4</octave><step>A</step></pitch><staff>1</staff><type>eighth</type><voice>1</voice></note><note><duration>480</duration><lyric><syllabic>single</syllabic><text>led,</text></lyric><pitch><octave>4</octave><step>E</step></pitch><staff>1</staff><type>quarter</type><voice>1</voice></note><note><duration>240</duration><lyric><syllabic>single</syllabic><text>Of</text></lyric><pitch><octave>4</octave><step>E</step></pitch><staff>1</staff><type>eighth</type><voice>1</voice></note></measure><measure number="20"><note><duration>480</duration><lyric><syllabic>begin</syllabic><text>con</text></lyric><pitch><alter>1</alter><octave>4</octave><step>F</step></pitch><staff>1</staff><type>quarter</type><voice>1</voice></note><note><duration>240</duration><lyric><syllabic>middle</syllabic><text>sti</text></lyric><pitch><octave>4</octave><step>E</step></pitch><staff>1</staff><type>eighth</type><voice>1</voice></note><note><duration>480</duration><lyric><syllabic>middle</syllabic><text>tu</text></lyric><pitch><alter>1</alter><octave>4</octave><step>F</step></pitch><staff>1</staff><type>quarter</type><voice>1</voice></note><note><duration>240</duration><lyric><syllabic>end</syllabic><text>tion</text></lyric><pitch><octave>4</octave><step>E</step></pitch><staff>1</staff><type>eighth</type><voice>1</voice></note></measure><measure number="21"><note><dot/><duration>720</duration><lyric><syllabic>single</syllabic><text>strong,</text></lyric><pitch><octave>4</octave><step>A</step></pitch><staff>1</staff><type>quarter</type><voice>1</voice></note><note><duration>480</duration><lyric><syllabic>single</syllabic><text>sir.</text></lyric><pitch><octave>4</octave><step>A</step></pitch><staff>1</staff><type>quarter</type><voice>1</voice></note><note><duration>240</duration><lyric><syllabic>single</syllabic><text>Sing</text></lyric><pitch><octave>4</octave><step>E</step></pitch><staff>1</staff><type>eighth</type><voice>1</voice></note></measure><measure number="22"><note><duration>480</duration><lyric><syllabic>begin</syllabic><text>tal</text></lyric><pitch><alter>1</alter><octave>4</octave><step>C</step></pitch><staff>1</staff><type>quarter</type><voice>1</voice></note><note><duration>240</duration><lyric><syllabic>end</syllabic><text>ly</text></lyric><pitch><alter>1</alter><octave>4</octave><step>F</step></pitch><staff>1</staff><type>eighth</type><voice>1</voice></note><note><duration>480</duration><lyric><syllabic>single</syllabic><text>ho!</text></lyric><pitch><octave>4</octave><step>E</step></pitch><staff>1</staff><type>quarter</type><voice>1</voice></note><note><duration>240</duration><lyric><syllabic>single</syllabic><text>sing</text></lyric><pitch><octave>4</octave><step>A</step></pitch><staff>1</staff><type>eighth</type><voice>1</voice></note></measure><measure number="23"><note><duration>480</duration><lyric><syllabic>begin</syllabic><text>tal</text></lyric><pitch><alter>1</alter><octave>4</octave><step>G</step></pitch><staff>1</staff><type>quarter</type><voice>1</voice></note><note><duration>240</duration><lyric><syllabic>end</syllabic><text>ly</text></lyric><pitch><octave>4</octave><step>B</step></pitch><staff>1</staff><type>eighth</type><voice>1</voice></note><note><duration>480</duration><lyric><syllabic>single</syllabic><text>ho!</text></lyric><pitch><octave>4</octave><step>E</step></pitch><staff>1</staff><type>quarter</type><voice>1</voice></note><note><duration>240</duration><lyric><syllabic>single</syllabic><text>sing</text></lyric><pitch><octave>4</octave><step>E</step></pitch><staff>1</staff><type>eighth</type><voice>1</voice></note></measure><measure number="24"><note><beam>begin</beam><duration>240</duration><lyric><syllabic>begin</syllabic><text>tal</text></lyric><pitch><octave>4</octave><step>A</step></pitch><staff>1</staff><stem>up</stem><type>eighth</type><voice>1</voice></note><note><beam>end</beam><duration>240</duration><lyric><syllabic>end</syllabic><text> </text></lyric><pitch><alter>1</alter><octave>4</octave><step>G</step></pitch><staff>1</staff><stem>up</stem><type>eighth</type><voice>1</voice></note><note><duration>240</duration><lyric><syllabic>single</syllabic><text>ly</text></lyric><pitch><octave>4</octave><step>A</step></pitch><staff>1</staff><type>eighth</type><voice>1</voice></note><note><duration>480</duration><lyric><syllabic>single</syllabic><text>ho!</text></lyric><pitch><octave>4</octave><step>B</step></pitch><staff>1</staff><type>quarter</type><voice>1</voice></note><note><duration>240</duration><lyric><syllabic>single</syllabic><text>why</text></lyric><pitch><octave>4</octave><step>B</step></pitch><staff>1</staff><type>eighth</type><voice>1</voice></note></measure><measure number="25"><note><dot/><duration>720</duration><lyric><syllabic>single</syllabic><text>zounds,</text></lyric><pitch><alter>1</alter><octave>5</octave><step>C</step></pitch><staff>1</staff><type>quarter</type><voice>1</voice></note><note><duration>480</duration><lyric><syllabic>single</syllabic><text>sir!</text></lyric><pitch><octave>4</octave><step>A</step></pitch><staff>1</staff><type>quarter</type><voice>1</voice></note><note><duration>240</duration><lyric><syllabic>single</syllabic><text>He</text></lyric><pitch><octave>4</octave><step>A</step></pitch><staff>1</staff><type>eighth</type><voice>1</voice></note></measure><measure number="26"><note><duration>480</duration><lyric><syllabic>single</syllabic><text>mounts</text></lyric><pitch><octave>5</octave><step>D</step></pitch><staff>1</staff><type>quarter</type><voice>1</voice></note><note><duration>240</duration><lyric><syllabic>single</syllabic><text>his</text></lyric><pitch><octave>4</octave><step>B</step></pitch><staff>1</staff><type>eighth</type><voice>1</voice></note><note><duration>480</duration><lyric><syllabic>single</syllabic><text>mare</text></lyric><pitch><alter>1</alter><octave>5</octave><step>C</step></pitch><staff>1</staff><type>quarter</type><voice>1</voice></note><note><duration>240</duration><lyric><syllabic>single</syllabic><text>to</text></lyric><pitch><octave>4</octave><step>A</step></pitch><staff>1</staff><type>eighth</type><voice>1</voice></note></measure><measure number="27"><note><duration>480</duration><lyric><syllabic>single</syllabic><text>hunt</text></lyric><pitch><octave>4</octave><step>B</step></pitch><staff>1</staff><type>quarter</type><voice>1</voice></note><note><duration>240</duration><lyric><syllabic>single</syllabic><text>the</text></lyric><pitch><alter>1</alter><octave>4</octave><step>G</step></pitch><staff>1</staff><type>eighth</type><voice>1</voice></note><note><duration>480</duration><lyric><syllabic>single</syllabic><text>hare,</text></lyric><pitch><octave>4</octave><step>A</step></pitch><staff>1</staff><type>quarter</type><voice>1</voice></note><note><duration>240</duration><lyric><syllabic>single</syllabic><text>Sing</text></lyric><pitch><octave>4</octave><step>E</step></pitch><staff>1</staff><type>eighth</type><voice>1</voice></note></measure><measure number="28"><note><grace/><pitch><octave>5</octave><step>E</step></pitch><staff>1</staff><type>eighth</type><voice>1</voice></note><note><beam>begin</beam><duration>240</duration><lyric><syllabic>begin</syllabic><text>Tal</text></lyric><pitch><alter>1</alter><octave>4</octave><step>C</step></pitch><staff>1</staff><stem>up</stem><type>eighth</type><voice>1</voice></note><note><beam>end</beam><duration>240</duration><lyric><syllabic>end</syllabic><text> </text></lyric><pitch><octave>4</octave><step>D</step></pitch><staff>1</staff><stem>up</stem><type>eighth</type><voice>1</voice></note><note><duration>240</duration><lyric><syllabic>single</syllabic><text>ly</text></lyric><pitch><octave>4</octave><step>E</step></pitch><staff>1</staff><type>eighth</type><voice>1</voice></note><note><beam>begin</beam><duration>240</duration><lyric><syllabic>single</syllabic><text>ho!</text></lyric><pitch><octave>4</octave><step>E</step></pitch><staff>1</staff><stem>up</stem><type>eighth</type><voice>1</voice></note><note><beam>end</beam><duration>240</duration><lyric><syllabic>single</syllabic><text> </text></lyric><pitch><alter>1</alter><octave>4</octave><step>F</step></pitch><staff>1</staff><stem>up</stem><type>eighth</type><voice>1</voice></note><note><duration>240</duration><lyric><syllabic>single</syllabic><text>the</text></lyric><pitch><alter>1</alter><octave>4</octave><step>G</step></pitch><staff>1</staff><type>eighth</type><voice>1</voice></note></measure><measure number="29"><note><dot/><duration>720</duration><lyric><syllabic>single</syllabic><text>hounds,</text></lyric><pitch><octave>4</octave><step>A</step></pitch><staff>1</staff><type>quarter</type><voice>1</voice></note><note><duration>480</duration><lyric><end-line/><syllabic>single</syllabic><text>sir.</text></lyric><pitch><octave>4</octave><step>A</step></pitch><staff>1</staff><type>quarter</type><voice>1</voice></note><barline location="right"><bar-style>light-heavy</bar-style></barline></measure></part><part id="part-2"><measure number="1"><attributes><clef><line>2</line><sign>G</sign></clef><divisions>480</divisions><key><fifths>3</fifths><mode>major</mode></key><time><beats>6</beats><beat-type>8</beat-type></time></attributes><note><duration>240</duration><pitch><octave>4</octave><step>A</step></pitch><staff>1</staff><type>eighth</type><voice>1</voice></note></measure><measure number="2"><note><duration>480</duration><pitch><octave>4</octave><step>A</step></pitch><staff>1</staff><type>quarter</type><voice>1</voice></note><note><duration>240</duration><pitch><alter>1</alter><octave>5</octave><step>C</step></pitch><staff>1</staff><type>eighth</type><voice>1</voice></note><note><duration>480</duration><pitch><octave>4</octave><step>E</step></pitch><staff>1</staff><type>quarter</type><voice>1</voice></note><note><duration>240</duration><pitch><alter>1</alter><octave>4</octave><step>F</step></pitch><staff>1</staff><type>eighth</type><voice>1</voice></note></measure><measure number="3"><note><duration>480</duration><pitch><octave>4</octave><step>A</step></pitch><staff>1</staff><type>quarter</type><voice>1</voice></note><note><duration>240</duration><pitch><alter>1</alter><octave>5</octave><step>C</step></pitch><staff>1</staff><type>eighth</type><voice>1</voice></note><note><duration>480</duration><pitch><octave>4</octave><step>E</step></pitch><staff>1</staff><type>quarter</type><voice>1</voice></note><note><duration>240</duration><pitch><alter>1</alter><octave>4</octave><step>F</step></pitch><staff>1</staff><type>eighth</type><voice>1</voice></note></measure><measure number="4"><note><beam>begin</beam><duration>240</duration><pitch><octave>4</octave><step>A</step></pitch><staff>1</staff><stem>up</stem><type>eighth</type><voice>1</voice></note><note><beam>continue</beam><duration>240</duration><pitch><alter>1</alter><octave>5</octave><step>C</step></pitch><staff>1</staff><stem>up</stem><type>eighth</type><voice>1</voice></note><note><beam>end</beam><duration>240</duration><pitch><octave>5</octave><step>E</step></pitch><staff>1</staff><stem>up</stem><type>eighth</type><voice>1</voice></note><note><beam>begin</beam><duration>240</duration><pitch><octave>5</octave><step>E</step></pitch><staff>1</staff><stem>up</stem><type>eighth</type><voice>1</voice></note><note><beam>continue</beam><duration>240</duration><pitch><octave>5</octave><step>D</step></pitch><staff>1</staff><stem>up</stem><type>eighth</type><voice>1</voice></note><note><beam>end</beam><duration>240</duration><pitch><octave>4</octave><step>A</step></pitch><staff>1</staff><stem>up</stem><type>eighth</type><voice>1</voice></note><note><beam>end</beam><chord/><duration>240</duration><pitch><alter>1</alter><octave>5</octave><step>C</step></pitch><staff>1</staff><stem>up</stem><type>eighth</type><voice>1</voice></note><backup><duration>1440</duration></backup><forward><duration>720</duration></forward><note><beam>begin</beam><duration>480</duration><pitch><octave>4</octave><step>A</step></pitch><staff>1</staff><stem>down</stem><type>quarter</type><voice>2</voice></note></measure><measure number="5"><note><beam>begin</beam><duration>240</duration><pitch><alter>1</alter><octave>5</octave><step>C</step></pitch><staff>1</staff><stem>up</stem><type>eighth</type><voice>1</voice></note><note><beam>continue</beam><duration>240</duration><pitch><octave>4</octave><step>B</step></pitch><staff>1</staff><stem>up</stem><type>eighth</type><voice>1</voice></note><note><beam>end</beam><duration>240</duration><pitch><alter>1</alter><octave>5</octave><step>F</step></pitch><staff>1</staff><stem>up</stem><type>eighth</type><voice>1</voice></note><note><beam>begin</beam><duration>240</duration><pitch><alter>1</alter><octave>5</octave><step>F</step></pitch><staff>1</staff><stem>up</stem><type>eighth</type><voice>1</voice></note><note><beam>continue</beam><duration>240</duration><pitch><octave>5</octave><step>E</step></pitch><staff>1</staff><stem>up</stem><type>eighth</type><voice>1</voice></note><note><accidental>sharp</accidental><beam>end</beam><duration>240</duration><pitch><alter>1</alter><octave>5</octave><step>D</step></pitch><staff>1</staff><stem>up</stem><type>eighth</type><voice>1</voice></note><backup><duration>1440</duration></backup><note><beam>begin</beam><chord/><dot/><duration>720</duration><pitch><alter>1</alter><octave>4</octave><step>F</step></pitch><staff>1</staff><stem>down</stem><type>quarter</type><voice>2</voice></note><note><beam>begin</beam><chord/><dot/><duration>720</duration><pitch><octave>4</octave><step>A</step></pitch><staff>1</staff><stem>down</stem><type>quarter</type><voice>2</voice></note><note><beam>begin</beam><chord/><dot/><duration>720</duration><pitch><alter>1</alter><octave>4</octave><step>G</step></pitch><staff>1</staff><stem>down</stem><type>quarter</type><voice>2</voice></note><note><beam>begin</beam><chord/><dot/><duration>720</duration><pitch><octave>4</octave><step>B</step></pitch><staff>1</staff><stem>down</stem><type>quarter</type><voice>2</voice></note></measure><measure number="6"><note><beam>begin</beam><duration>240</duration><pitch><octave>5</octave><step>E</step></pitch><staff>1</staff><stem>up</stem><type>eighth</type><voice>1</voice></note><note><beam>continue</beam><duration>240</duration><pitch><alter>1</alter><octave>5</octave><step>C</step></pitch><staff>1</staff><stem>up</stem><type>eighth</type><voice>1</voice></note><note><beam>end</beam><duration>240</duration><pitch><alter>1</alter><octave>4</octave><step>F</step></pitch><staff>1</staff><stem>up</stem><type>eighth</type><voice>1</voice></note><note><beam>end</beam><chord/><duration>240</duration><pitch><alter>1</alter><octave>5</octave><step>C</step></pitch><staff>1</staff><stem>up</stem><type>eighth</type><voice>1</voice></note><note><beam>end</beam><chord/><duration>240</duration><pitch><alter>1</alter><octave>5</octave><step>F</step></pitch><staff>1</staff><stem>up</stem><type>eighth</type><voice>1</voice></note><note><beam>begin</beam><duration>240</duration><pitch><octave>5</octave><step>D</step></pitch><staff>1</staff><stem>up</stem><type>eighth</type><voice>1</voice></note><note><beam>continue</beam><duration>240</duration><pitch><octave>4</octave><step>B</step></pitch><staff>1</staff><stem>up</stem><type>eighth</type><voice>1</voice></note><note><beam>end</beam><duration>240</duration><pitch><octave>4</octave><step>E</step></pitch><staff>1</staff><stem>up</stem><type>eighth</type><voice>1</voice></note><note><beam>end</beam><chord/><duration>240</duration><pitch><octave>4</octave><step>B</step></pitch><staff>1</staff><stem>up</stem><type>eighth</type><voice>1</voice></note><note><beam>end</beam><chord/><duration>240</duration><pitch><octave>5</octave><step>E</step></pitch><staff>1</staff><stem>up</stem><type>eighth</type><voice>1</voice></note><backup><duration>1440</duration></backup><note><beam>begin</beam><duration>480</duration><pitch><octave>4</octave><step>A</step></pitch><staff>1</staff><stem>down</stem><type>quarter</type><voice>2</voice></note><forward><duration>240</duration></forward><note><beam>begin</beam><chord/><duration>480</duration><pitch><alter>1</alter><octave>4</octave><step>F</step></pitch><staff>1</staff><stem>down</stem><type>quarter</type><voice>2</voice></note><note><beam>begin</beam><chord/><duration>480</duration><pitch><octave>4</octave><step>B</step></pitch><staff>1</staff><stem>down</stem><type>quarter</type><voice>2</voice></note></measure><measure number="7"><note><beam>begin</beam><duration>240</duration><pitch><alter>1</alter><octave>5</octave><step>C</step></pitch><staff>1</staff><stem>up</stem><type>eighth</type><voice>1</voice></note><note><beam>continue</beam><duration>240</duration><pitch><octave>4</octave><step>A</step></pitch><staff>1</staff><stem>up</stem><type>eighth</type><voice>1</voice></note><note><beam>end</beam><duration>240</duration><pitch><octave>4</octave><step>D</step></pitch><staff>1</staff><stem>up</stem><type>eighth</type><voice>1</voice></note><note><beam>end</beam><chord/><duration>240</duration><pitch><octave>4</octave><step>A</step></pitch><staff>1</staff><stem>up</stem><type>eighth</type><voice>1</voice></note><note><beam>end</beam><chord/><duration>240</duration><pitch><octave>5</octave><step>D</step></pitch><staff>1</staff><stem>up</stem><type>eighth</type><voice>1</voice></note><note><beam>begin</beam><duration>240</duration><pitch><octave>4</octave><step>B</step></pitch><staff>1</staff><stem>up</stem><type>eighth</type><voice>1</voice></note><note><beam>continue</beam><duration>240</duration><pitch><alter>1</alter><octave>4</octave><step>G</step></pitch><staff>1</staff><stem>up</stem><type>eighth</type><voice>1</voice></note><note><beam>end</beam><duration>240</duration><pitch><alter>1</alter><octave>4</octave><step>C</step></pitch><staff>1</staff><stem>up</stem><type>eighth</type><voice>1</voice></note><note><beam>end</beam><chord/><duration>240</duration><pitch><alter>1</alter><octave>4</octave><step>G</step></pitch><staff>1</staff><stem>up</stem><type>eighth</type><voice>1</voice></note><note><beam>end</beam><chord/><duration>240</duration><pitch><alter>1</alter><octave>5</octave><step>C</step></pitch><staff>1</staff><stem>up</stem><type>eighth</type><voice>1</voice></note><backup><duration>1440</duration></backup><note><beam>begin</beam><chord/><duration>480</duration><pitch><octave>4</octave><step>E</step></pitch><staff>1</staff><stem>down</stem><type>quarter</type><voice>2</voice></note><note><beam>begin</beam><chord/><duration>480</duration><pitch><octave>4</octave><step>A</step></pitch><staff>1</staff><stem>down</stem><type>quarter</type><voice>2</voice></note><forward><duration>240</duration></forward><note><beam>begin</beam><chord/><duration>480</duration><pitch><octave>4</octave><step>D</step></pitch><staff>1</staff><stem>down</stem><type>quarter</type><voice>2</voice></note><note><beam>begin</beam><chord/><duration>480</duration><pitch><alter>1</alter><octave>4</octave><step>G</step></pitch><staff>1</staff><stem>down</stem><type>quarter</type><voice>2</voice></note></measure><measure number="8"><note><beam>begin</beam><dot/><duration>360</duration><pitch><alter>1</alter><octave>4</octave><step>F</step></pitch><staff>1</staff><stem>up</stem><type>eighth</type><voice>1</voice></note><note><beam>begin</beam><chord/><dot/><duration>360</duration><pitch><octave>4</octave><step>A</step></pitch><staff>1</staff><stem>up</stem><type>eighth</type><voice>1</voice></note><note><accidental>sharp</accidental><beam>continue</beam><duration>120</duration><pitch><alter>1</alter><octave>4</octave><step>E</step></pitch><staff>1</staff><stem>up</stem><type>16th</type><voice>1</voice></note><note><beam>continue</beam><chord/><duration>120</duration><pitch><alter>1</alter><octave>4</octave><step>G</step></pitch><staff>1</staff><stem>up</stem><type>16th</type><voice>1</voice></note><note><beam>end</beam><duration>240</duration><pitch><alter>1</alter><octave>4</octave><step>F</step></pitch><staff>1</staff><stem>up</stem><type>eighth</type><voice>1</voice></note><note><beam>end</beam><chord/><duration>240</duration><pitch><octave>4</octave><step>A</step></pitch><staff>1</staff><stem>up</stem><type>eighth</type><voice>1</voice></note><note><beam>begin</beam><dot/><duration>360</duration><pitch><octave>4</octave><step>A</step></pitch><staff>1</staff><stem>up</stem><type>eighth</type><voice>1</voice></note><note><beam>begin</beam><chord/><dot/><duration>360</duration><pitch><alter>1</alter><octave>5</octave><step>C</step></pitch><staff>1</staff><stem>up</stem><type>eighth</type><voice>1</voice></note><note><beam>continue</beam><duration>120</duration><pitch><alter>1</alter><octave>4</octave><step>G</step></pitch><staff>1</staff><stem>up</stem><type>16th</type><voice>1</voice></note><note><beam>continue</beam><chord/><duration>120</duration><pitch><octave>4</octave><step>B</step></pitch><staff>1</staff><stem>up</stem><type>16th</type><voice>1</voice></note><note><beam>end</beam><duration>240</duration><pitch><alter>1</alter><octave>4</octave><step>F</step></pitch><staff>1</staff><stem>up</stem><type>eighth</type><voice>1</voice></note><note><beam>end</beam><chord/><duration>240</duration><pitch><octave>4</octave><step>A</step></pitch><staff>1</staff><stem>up</stem><type>eighth</type><voice>1</voice></note></measure><measure number="9"><note><beam>begin</beam><dot/><duration>360</duration><pitch><octave>4</octave><step>A</step></pitch><staff>1</staff><stem>up</stem><type>eighth</type><voice>1</voice></note><note><beam>begin</beam><chord/><dot/><duration>360</duration><pitch><alter>1</alter><octave>5</octave><step>C</step></pitch><staff>1</staff><stem>up</stem><type>eighth</type><voice>1</voice></note><note><beam>continue</beam><duration>120</duration><pitch><alter>1</alter><octave>4</octave><step>G</step></pitch><staff>1</staff><stem>up</stem><type>16th</type><voice>1</voice></note><note><beam>continue</beam><chord/><duration>120</duration><pitch><octave>4</octave><step>B</step></pitch><staff>1</staff><stem>up</stem><type>16th</type><voice>1</voice></note><note><beam>end</beam><duration>240</duration><pitch><alter>1</alter><octave>4</octave><step>F</step></pitch><staff>1</staff><stem>up</stem><type>eighth</type><voice>1</voice></note><note><beam>end</beam><chord/><duration>240</duration><pitch><octave>4</octave><step>A</step></pitch><staff>1</staff><stem>up</stem><type>eighth</type><voice>1</voice></note><note><beam>begin</beam><dot/><duration>360</duration><pitch><octave>4</octave><step>A</step></pitch><staff>1</staff><stem>up</stem><type>eighth</type><voice>1</voice></note><note><beam>begin</beam><chord/><dot/><duration>360</duration><pitch><alter>1</alter><octave>5</octave><step>C</step></pitch><staff>1</staff><stem>up</stem><type>eighth</type><voice>1</voice></note><note><beam>continue</beam><duration>120</duration><pitch><alter>1</alter><octave>4</octave><step>G</step></pitch><staff>1</staff><stem>up</stem><type>16th</type><voice>1</voice></note><note><beam>continue</beam><chord/><duration>120</duration><pitch><octave>4</octave><step>B</step></pitch><staff>1</staff><stem>up</stem><type>16th</type><voice>1</voice></note><note><beam>end</beam><duration>240</duration><pitch><alter>1</alter><octave>4</octave><step>F</step></pitch><staff>1</staff><stem>up</stem><type>eighth</type><voice>1</voice></note><note><beam>end</beam><chord/><duration>240</duration><pitch><octave>4</octave><step>A</step></pitch><staff>1</staff><stem>up</stem><type>eighth</type><voice>1</voice></note></measure><measure number="10"><note><beam>begin</beam><dot/><duration>720</duration><pitch><octave>5</octave><step>E</step></pitch><staff>1</staff><stem>up</stem><type>quarter</type><voice>1</voice></note><note><beam>begin</beam><dot/><duration>720</duration><pitch><octave>5</octave><step>E</step></pitch><staff>1</staff><stem>up</stem><type>quarter</type><voice>1</voice></note><backup><duration>1440</duration></backup><note><beam>begin</beam><dot/><duration>360</duration><pitch><alter>1</alter><octave>5</octave><step>C</step></pitch><staff>1</staff><stem>down</stem><type>eighth</type><voice>2</voice></note><note><beam>continue</beam><duration>120</duration><pitch><octave>4</octave><step>B</step></pitch><staff>1</staff><stem>down</stem><type>16th</type><voice>2</voice></note><note><beam>end</beam><duration>240</duration><pitch><octave>4</octave><step>A</step></pitch><staff>1</staff><stem>down</stem><type>eighth</type><voice>2</voice></note><note><beam>begin</beam><dot/><duration>360</duration><pitch><alter>1</alter><octave>5</octave><step>C</step></pitch><staff>1</staff><stem>down</stem><type>eighth</type><voice>2</voice></note><note><beam>continue</beam><duration>120</duration><pitch><octave>4</octave><step>B</step></pitch><staff>1</staff><stem>down</stem><type>16th</type><voice>2</voice></note><note><beam>end</beam><duration>240</duration><pitch><octave>4</octave><step>A</step></pitch><staff>1</staff><stem>down</stem><type>eighth</type><voice>2</voice></note></measure><measure number="11"><note><beam>begin</beam><dot/><duration>360</duration><pitch><octave>4</octave><step>E</step></pitch><staff>1</staff><stem>up</stem><type>eighth</type><voice>1</voice></note><note><beam>begin</beam><chord/><dot/><duration>360</duration><pitch><octave>5</octave><step>E</step></pitch><staff>1</staff><stem>up</stem><type>eighth</type><voice>1</voice></note><note><beam>continue</beam><duration>120</duration><pitch><octave>4</octave><step>E</step></pitch><staff>1</staff><stem>up</stem><type>16th</type><voice>1</voice></note><note><beam>continue</beam><chord/><duration>120</duration><pitch><octave>5</octave><step>E</step></pitch><staff>1</staff><stem>up</stem><type>16th</type><voice>1</voice></note><note><beam>end</beam><duration>240</duration><pitch><octave>4</octave><step>E</step></pitch><staff>1</staff><stem>up</stem><type>eighth</type><voice>1</voice></note><note><beam>end</beam><chord/><duration>240</duration><pitch><octave>5</octave><step>E</step></pitch><staff>1</staff><stem>up</stem><type>eighth</type><voice>1</voice></note><note><beam>begin</beam><dot/><duration>360</duration><pitch><octave>4</octave><step>E</step></pitch><staff>1</staff><stem>up</stem><type>eighth</type><voice>1</voice></note><note><beam>begin</beam><chord/><dot/><duration>360</duration><pitch><octave>5</octave><step>E</step></pitch><staff>1</staff><stem>up</stem><type>eighth</type><voice>1</voice></note><note><beam>continue</beam><duration>120</duration><pitch><octave>4</octave><step>E</step></pitch><staff>1</staff><stem>up</stem><type>16th</type><voice>1</voice></note><note><beam>continue</beam><chord/><duration>120</duration><pitch><octave>5</octave><step>E</step></pitch><staff>1</staff><stem>up</stem><type>16th</type><voice>1</voice></note><note><beam>end</beam><duration>240</duration><pitch><octave>4</octave><step>E</step></pitch><staff>1</staff><stem>up</stem><type>eighth</type><voice>1</voice></note><note><beam>end</beam><chord/><duration>240</duration><pitch><octave>5</octave><step>E</step></pitch><staff>1</staff><stem>up</stem><type>eighth</type><voice>1</voice></note></measure><measure number="12"><barline location="right"><bar-style>light-light</bar-style></barline><note><dot/><duration>720</duration><notations><tied type="start"/></notations><pitch><octave>4</octave><step>A</step></pitch><staff>1</staff><tie type="start"/><type>quarter</type><voice>1</voice></note><note><chord/><dot/><duration>720</duration><notations><tied type="start"/></notations><pitch><octave>5</octave><step>A</step></pitch><staff>1</staff><tie type="start"/><type>quarter</type><voice>1</voice></note><note><duration>480</duration><notations><tied type="stop"/></notations><pitch><octave>4</octave><step>A</step></pitch><staff>1</staff><tie type="stop"/><type>quarter</type><voice>1</voice></note><note><chord/><duration>480</duration><notations><tied type="stop"/></notations><pitch><octave>5</octave><step>A</step></pitch><staff>1</staff><tie type="stop"/><type>quarter</type><voice>1</voice></note></measure><measure number="13"><note><duration>240</duration><rest/><staff>1</staff><type>eighth</type><voice>1</voice></note></measure><measure number="14"><note><duration>480</duration><pitch><alter>1</alter><octave>4</octave><step>C</step></pitch><staff>1</staff><type>quarter</type><voice>1</voice></note><note><duration>240</duration><pitch><alter>1</alter><octave>4</octave><step>C</step></pitch><staff>1</staff><type>eighth</type><voice>1</voice></note><note><duration>480</duration><pitch><alter>1</alter><octave>4</octave><step>C</step></pitch><staff>1</staff><type>quarter</type><voice>1</voice></note><note><duration>240</duration><pitch><octave>4</octave><step>D</step></pitch><staff>1</staff><type>eighth</type><voice>1</voice></note></measure><measure number="15"><note><duration>480</duration><pitch><alter>1</alter><octave>4</octave><step>C</step></pitch><staff>1</staff><type>quarter</type><voice>1</voice></note><note><duration>240</duration><pitch><alter>1</alter><octave>4</octave><step>C</step></pitch><staff>1</staff><type>eighth</type><voice>1</voice></note><note><duration>480</duration><pitch><alter>1</alter><octave>4</octave><step>C</step></pitch><staff>1</staff><type>quarter</type><voice>1</voice></note><note><duration>240</duration><pitch><octave>4</octave><step>D</step></pitch><staff>1</staff><type>eighth</type><voice>1</voice></note></measure><measure number="16"><note><beam>begin</beam><duration>240</duration><pitch><octave>3</octave><step>A</step></pitch><staff>1</staff><stem>up</stem><type>eighth</type><voice>1</voice></note><note><beam>begin</beam><chord/><duration>240</duration><pitch><alter>1</alter><octave>4</octave><step>C</step></pitch><staff>1</staff><stem>up</stem><type>eighth</type><voice>1</voice></note><note><beam>continue</beam><duration>240</duration><pitch><octave>4</octave><step>E</step></pitch><staff>1</staff><stem>up</stem><type>eighth</type><voice>1</voice></note><note><beam>end</beam><duration>240</duration><pitch><octave>3</octave><step>A</step></pitch><staff>1</staff><stem>up</stem><type>eighth</type><voice>1</voice></note><note><beam>end</beam><chord/><duration>240</duration><pitch><octave>4</octave><step>E</step></pitch><staff>1</staff><stem>up</stem><type>eighth</type><voice>1</voice></note><note><beam>end</beam><chord/><duration>240</duration><pitch><octave>4</octave><step>A</step></pitch><staff>1</staff><stem>up</stem><type>eighth</type><voice>1</voice></note><note><grace/><pitch><octave>4</octave><step>A</step></pitch><staff>1</staff><type>16th</type><voice>1</voice></note><note><beam>begin</beam><duration>240</duration><pitch><octave>3</octave><step>B</step></pitch><staff>1</staff><stem>up</stem><type>eighth</type><voice>1</voice></note><note><beam>begin</beam><chord/><duration>240</duration><pitch><octave>4</octave><step>D</step></pitch><staff>1</staff><stem>up</stem><type>eighth</type><voice>1</voice></note><note><beam>begin</beam><chord/><duration>240</duration><pitch><alter>1</alter><octave>4</octave><step>G</step></pitch><staff>1</staff><stem>up</stem><type>eighth</type><voice>1</voice></note><note><beam>continue</beam><duration>240</duration><pitch><alter>1</alter><octave>4</octave><step>F</step></pitch><staff>1</staff><stem>up</stem><type>eighth</type><voice>1</voice></note><note><beam>end</beam><duration>240</duration><pitch><octave>3</octave><step>B</step></pitch><staff>1</staff><stem>up</stem><type>eighth</type><voice>1</voice></note><note><beam>end</beam><chord/><duration>240</duration><pitch><octave>4</octave><step>D</step></pitch><staff>1</staff><stem>up</stem><type>eighth</type><voice>1</voice></note><note><beam>end</beam><chord/><duration>240</duration><pitch><alter>1</alter><octave>4</octave><step>G</step></pitch><staff>1</staff><stem>up</stem><type>eighth</type><voice>1</voice></note></measure><measure number="17"><note><dot/><duration>720</duration><pitch><alter>1</alter><octave>4</octave><step>C</step></pitch><staff>1</staff><type>quarter</type><voice>1</voice></note><note><chord/><dot/><duration>720</duration><pitch><octave>4</octave><step>A</step></pitch><staff>1</staff><type>quarter</type><voice>1</voice></note><note><duration>480</duration><pitch><alter>1</alter><octave>4</octave><step>C</step></pitch><staff>1</staff><type>quarter</type><voice>1</voice></note><note><chord/><duration>480</duration><pitch><octave>4</octave><step>E</step></pitch><staff>1</staff><type>quarter</type><voice>1</voice></note><note><duration>240</duration><pitch><alter>1</alter><octave>4</octave><step>C</step></pitch><staff>1</staff><type>eighth</type><voice>1</voice></note><note><chord/><duration>240</duration><pitch><octave>4</octave><step>E</step></pitch><staff>1</staff><type>eighth</type><voice>1</voice></note><note><chord/><duration>240</duration><pitch><octave>4</octave><step>A</step></pitch><staff>1</staff><type>eighth</type><voice>1</voice></note></measure><measure number="18"><note><duration>480</duration><pitch><alter>1</alter><octave>4</octave><step>F</step></pitch><staff>1</staff><type>quarter</type><voice>1</voice></note><note><chord/><duration>480</duration><pitch><octave>4</octave><step>A</step></pitch><staff>1</staff><type>quarter</type><voice>1</voice></note><note><chord/><duration>480</duration><pitch><alter>1</alter><octave>5</octave><step>C</step></pitch><staff>1</staff><type>quarter</type><voice>1</voice></note><note><duration>240</duration><rest/><staff>1</staff><type>eighth</type><voice>1</voice></note><note><duration>480</duration><pitch><octave>4</octave><step>E</step></pitch><staff>1</staff><type>quarter</type><voice>1</voice></note><note><chord/><duration>480</duration><pitch><alter>1</alter><octave>4</octave><step>G</step></pitch><staff>1</staff><type>quarter</type><voice>1</voice></note><note><chord/><duration>480</duration><pitch><octave>5</octave><step>E</step></pitch><staff>1</staff><type>quarter</type><voice>1</voice></note><note><duration>240</duration><rest/><staff>1</staff><type>eighth</type><voice>1</voice></note></measure><measure number="19"><note><duration>480</duration><pitch><octave>4</octave><step>D</step></pitch><staff>1</staff><type>quarter</type><voice>1</voice></note><note><chord/><duration>480</duration><pitch><alter>1</alter><octave>4</octave><step>F</step></pitch><staff>1</staff><type>quarter</type><voice>1</voice></note><note><chord/><duration>480</duration><pitch><octave>4</octave><step>A</step></pitch><staff>1</staff><type>quarter</type><voice>1</voice></note><note><duration>240</duration><rest/><staff>1</staff><type>eighth</type><voice>1</voice></note><note><duration>480</duration><pitch><alter>1</alter><octave>4</octave><step>C</step></pitch><staff>1</staff><type>quarter</type><voice>1</voice></note><note><chord/><duration>480</duration><pitch><octave>4</octave><step>E</step></pitch><staff>1</staff><type>quarter</type><voice>1</voice></note><note><chord/><duration>480</duration><pitch><alter>1</alter><octave>5</octave><step>C</step></pitch><staff>1</staff><type>quarter</type><voice>1</voice></note><note><duration>240</duration><pitch><octave>3</octave><step>A</step></pitch><staff>1</staff><type>eighth</type><voice>1</voice></note><note><chord/><duration>240</duration><pitch><octave>4</octave><step>E</step></pitch><staff>1</staff><type>eighth</type><voice>1</voice></note><note><chord/><duration>240</duration><pitch><octave>4</octave><step>A</step></pitch><staff>1</staff><type>eighth</type><voice>1</voice></note></measure><measure number="20"><note><duration>480</duration><pitch><octave>3</octave><step>A</step></pitch><staff>1</staff><type>quarter</type><voice>1</voice></note><note><accidental>sharp</accidental><chord/><duration>480</duration><pitch><alter>1</alter><octave>4</octave><step>D</step></pitch><staff>1</staff><type>quarter</type><voice>1</voice></note><note><chord/><duration>480</duration><pitch><octave>4</octave><step>A</step></pitch><staff>1</staff><type>quarter</type><voice>1</voice></note><note><duration>240</duration><pitch><octave>3</octave><step>A</step></pitch><staff>1</staff><type>eighth</type><voice>1</voice></note><note><chord/><duration>240</duration><pitch><alter>1</alter><octave>4</octave><step>D</step></pitch><staff>1</staff><type>eighth</type><voice>1</voice></note><note><chord/><duration>240</duration><pitch><octave>4</octave><step>A</step></pitch><staff>1</staff><type>eighth</type><voice>1</voice></note><note><beam>begin</beam><duration>240</duration><pitch><alter>1</alter><octave>4</octave><step>G</step></pitch><staff>1</staff><stem>up</stem><type>eighth</type><voice>1</voice></note><note><beam>continue</beam><duration>240</duration><pitch><alter>1</alter><octave>4</octave><step>F</step></pitch><staff>1</staff><stem>up</stem><type>eighth</type><voice>1</voice></note><note><beam>end</beam><duration>240</duration><pitch><alter>1</alter><octave>4</octave><step>G</step></pitch><staff>1</staff><stem>up</stem><type>eighth</type><voice>1</voice></note><backup><duration>1440</duration></backup><forward><duration>720</duration></forward><note><beam>begin</beam><chord/><duration>480</duration><pitch><octave>3</octave><step>B</step></pitch><staff>1</staff><stem>down</stem><type>quarter</type><voice>2</voice></note><note><accidental>natural</accidental><beam>begin</beam><chord/><duration>480</duration><pitch><alter>0</alter><octave>4</octave><step>D</step></pitch><staff>1</staff><stem>down</stem><type>quarter</type><voice>2</voice></note><note><beam>end</beam><chord/><duration>480</duration><pitch><octave>3</octave><step>B</step></pitch><staff>1</staff><stem>down</stem><type>quarter</type><voice>2</voice></note><note><beam>end</beam><chord/><duration>480</duration><pitch><octave>4</octave><step>D</step></pitch><staff>1</staff><stem>down</stem><type>quarter</type><voice>2</voice></note></measure><measure number="21"><note><dot/><duration>720</duration><pitch><octave>3</octave><step>A</step></pitch><staff>1</staff><type>quarter</type><voice>1</voice></note><note><chord/><dot/><duration>720</duration><pitch><alter>1</alter><octave>4</octave><step>C</step></pitch><staff>1</staff><type>quarter</type><voice>1</voice></note><note><chord/><dot/><duration>720</duration><pitch><octave>4</octave><step>A</step></pitch><staff>1</staff><type>quarter</type><voice>1</voice></note><note><duration>480</duration><pitch><octave>3</octave><step>A</step></pitch><staff>1</staff><type>quarter</type><voice>1</voice></note><note><chord/><duration>480</duration><pitch><alter>1</alter><octave>4</octave><step>C</step></pitch><staff>1</staff><type>quarter</type><voice>1</voice></note><note><chord/><duration>480</duration><pitch><octave>4</octave><step>E</step></pitch><staff>1</staff><type>quarter</type><voice>1</voice></note><note><duration>240</duration><pitch><octave>3</octave><step>A</step></pitch><staff>1</staff><type>eighth</type><voice>1</voice></note><note><chord/><duration>240</duration><pitch><octave>4</octave><step>E</step></pitch><staff>1</staff><type>eighth</type><voice>1</voice></note><note><chord/><duration>240</duration><pitch><octave>4</octave><step>A</step></pitch><staff>1</staff><type>eighth</type><voice>1</voice></note></measure><measure number="22"><note><duration>480</duration><pitch><alter>1</alter><octave>4</octave><step>C</step></pitch><staff>1</staff><stem>up</stem><type>quarter</type><voice>1</voice></note><note><chord/><duration>480</duration><pitch><alter>1</alter><octave>4</octave><step>F</step></pitch><staff>1</staff><stem>up</stem><type>quarter</type><voice>1</voice></note><note><chord/><duration>480</duration><pitch><octave>4</octave><step>A</step></pitch><staff>1</staff><stem>up</stem><type>quarter</type><voice>1</voice></note><note><duration>240</duration><pitch><alter>1</alter><octave>4</octave><step>F</step></pitch><staff>1</staff><type>eighth</type><voice>1</voice></note><note><chord/><duration>240</duration><pitch><alter>1</alter><octave>5</octave><step>C</step></pitch><staff>1</staff><type>eighth</type><voice>1</voice></note><note><duration>480</duration><pitch><octave>4</octave><step>E</step></pitch><staff>1</staff><type>quarter</type><voice>1</voice></note><note><chord/><duration>480</duration><pitch><alter>1</alter><octave>4</octave><step>G</step></pitch><staff>1</staff><type>quarter</type><voice>1</voice></note><note><chord/><duration>480</duration><pitch><octave>5</octave><step>E</step></pitch><staff>1</staff><type>quarter</type><voice>1</voice></note><note><duration>240</duration><pitch><octave>4</octave><step>E</step></pitch><staff>1</staff><type>eighth</type><voice>1</voice></note><note><chord/><duration>240</duration><pitch><octave>4</octave><step>A</step></pitch><staff>1</staff><type>eighth</type><voice>1</voice></note><note><chord/><duration>240</duration><pitch><octave>5</octave><step>E</step></pitch><staff>1</staff><type>eighth</type><voice>1</voice></note></measure><measure number="23"><note><beam>begin</beam><duration>240</duration><pitch><octave>5</octave><step>D</step></pitch><staff>1</staff><stem>up</stem><type>eighth</type><voice>1</voice></note><note><beam>continue</beam><duration>240</duration><pitch><alter>1</alter><octave>5</octave><step>C</step></pitch><staff>1</staff><stem>up</stem><type>eighth</type><voice>1</voice></note><note><beam>end</beam><duration>240</duration><pitch><octave>4</octave><step>E</step></pitch><staff>1</staff><stem>up</stem><type>eighth</type><voice>1</voice></note><note><beam>end</beam><chord/><duration>240</duration><pitch><octave>4</octave><step>B</step></pitch><staff>1</staff><stem>up</stem><type>eighth</type><voice>1</voice></note><note><beam>end</beam><chord/><duration>240</duration><pitch><octave>5</octave><step>D</step></pitch><staff>1</staff><stem>up</stem><type>eighth</type><voice>1</voice></note><note><duration>480</duration><pitch><octave>4</octave><step>E</step></pitch><staff>1</staff><type>quarter</type><voice>1</voice></note><note><chord/><duration>480</duration><pitch><octave>4</octave><step>A</step></pitch><staff>1</staff><type>quarter</type><voice>1</voice></note><note><chord/><duration>480</duration><pitch><alter>1</alter><octave>5</octave><step>C</step></pitch><staff>1</staff><type>quarter</type><voice>1</voice></note><note><duration>240</duration><pitch><octave>4</octave><step>E</step></pitch><staff>1</staff><type>eighth</type><voice>1</voice></note><note><chord/><duration>240</duration><pitch><octave>4</octave><step>A</step></pitch><staff>1</staff><type>eighth</type><voice>1</voice></note><note><chord/><duration>240</duration><pitch><octave>5</octave><step>E</step></pitch><staff>1</staff><type>eighth</type><voice>1</voice></note><backup><duration>1440</duration></backup><note><beam>begin</beam><chord/><duration>480</duration><pitch><octave>4</octave><step>E</step></pitch><staff>1</staff><stem>down</stem><type>quarter</type><voice>2</voice></note><note><beam>begin</beam><chord/><duration>480</duration><pitch><alter>1</alter><octave>4</octave><step>G</step></pitch><staff>1</staff><stem>down</stem><type>quarter</type><voice>2</voice></note></measure><measure number="24"><note><duration>480</duration><pitch><octave>3</octave><step>B</step></pitch><staff>1</staff><type>quarter</type><voice>1</voice></note><note><accidental>sharp</accidental><chord/><duration>480</duration><pitch><alter>1</alter><octave>4</octave><step>D</step></pitch><staff>1</staff><type>quarter</type><voice>1</voice></note><note><chord/><duration>480</duration><pitch><octave>4</octave><step>A</step></pitch><staff>1</staff><type>quarter</type><voice>1</voice></note><note><duration>240</duration><pitch><octave>3</octave><step>B</step></pitch><staff>1</staff><type>eighth</type><voice>1</voice></note><note><chord/><duration>240</duration><pitch><alter>1</alter><octave>4</octave><step>D</step></pitch><staff>1</staff><type>eighth</type><voice>1</voice></note><note><chord/><duration>240</duration><pitch><octave>4</octave><step>A</step></pitch><staff>1</staff><type>eighth</type><voice>1</voice></note><note><beam>begin</beam><duration>240</duration><pitch><alter>1</alter><octave>4</octave><step>G</step></pitch><staff>1</staff><stem>up</stem><type>eighth</type><voice>1</voice></note><note><beam>continue</beam><duration>240</duration><pitch><octave>4</octave><step>B</step></pitch><staff>1</staff><stem>up</stem><type>eighth</type><voice>1</voice></note><note><beam>end</beam><duration>240</duration><pitch><octave>4</octave><step>E</step></pitch><staff>1</staff><stem>up</stem><type>eighth</type><voice>1</voice></note><note><beam>end</beam><chord/><duration>240</duration><pitch><alter>1</alter><octave>4</octave><step>G</step></pitch><staff>1</staff><stem>up</stem><type>eighth</type><voice>1</voice></note><note><beam>end</beam><chord/><duration>240</duration><pitch><octave>5</octave><step>E</step></pitch><staff>1</staff><stem>up</stem><type>eighth</type><voice>1</voice></note><backup><duration>1440</duration></backup><forward><duration>720</duration></forward><note><beam>begin</beam><chord/><duration>480</duration><pitch><octave>3</octave><step>B</step></pitch><staff>1</staff><stem>down</stem><type>quarter</type><voice>2</voice></note><note><beam>begin</beam><chord/><duration>480</duration><pitch><octave>4</octave><step>E</step></pitch><staff>1</staff><stem>down</stem><type>quarter</type><voice>2</voice></note></measure><measure number="25"><note><dot/><duration>720</duration><pitch><octave>4</octave><step>E</step></pitch><staff>1</staff><type>quarter</type><voice>1</voice></note><note><chord/><dot/><duration>720</duration><pitch><octave>4</octave><step>A</step></pitch><staff>1</staff><type>quarter</type><voice>1</voice></note><note><chord/><dot/><duration>720</duration><pitch><alter>1</alter><octave>5</octave><step>C</step></pitch><staff>1</staff><type>quarter</type><voice>1</voice></note><note><chord/><dot/><duration>720</duration><pitch><octave>5</octave><step>E</step></pitch><staff>1</staff><type>quarter</type><voice>1</voice></note><note><duration>480</duration><pitch><octave>4</octave><step>E</step></pitch><staff>1</staff><type>quarter</type><voice>1</voice></note><note><chord/><duration>480</duration><pitch><octave>4</octave><step>A</step></pitch><staff>1</staff><type>quarter</type><voice>1</voice></note><note><chord/><duration>480</duration><pitch><alter>1</alter><octave>5</octave><step>C</step></pitch><staff>1</staff><type>quarter</type><voice>1</voice></note><note><duration>240</duration><pitch><alter>1</alter><octave>4</octave><step>F</step></pitch><staff>1</staff><type>eighth</type><voice>1</voice></note><note><chord/><duration>240</duration><pitch><octave>4</octave><step>A</step></pitch><staff>1</staff><type>eighth</type><voice>1</voice></note><note><chord/><duration>240</duration><pitch><alter>1</alter><octave>5</octave><step>C</step></pitch><staff>1</staff><type>eighth</type><voice>1</voice></note></measure><measure number="26"><note><duration>480</duration><pitch><alter>1</alter><octave>4</octave><step>F</step></pitch><staff>1</staff><type>quarter</type><voice>1</voice></note><note><chord/><duration>480</duration><pitch><octave>4</octave><step>B</step></pitch><staff>1</staff><type>quarter</type><voice>1</voice></note><note><chord/><duration>480</duration><pitch><octave>5</octave><step>D</step></pitch><staff>1</staff><type>quarter</type><voice>1</voice></note><note><duration>240</duration><pitch><octave>4</octave><step>E</step></pitch><staff>1</staff><type>eighth</type><voice>1</voice></note><note><chord/><duration>240</duration><pitch><octave>4</octave><step>B</step></pitch><staff>1</staff><type>eighth</type><voice>1</voice></note><note><chord/><duration>240</duration><pitch><octave>5</octave><step>E</step></pitch><staff>1</staff><type>eighth</type><voice>1</voice></note><note><duration>480</duration><pitch><octave>4</octave><step>E</step></pitch><staff>1</staff><type>quarter</type><voice>1</voice></note><note><chord/><duration>480</duration><pitch><octave>4</octave><step>A</step></pitch><staff>1</staff><type>quarter</type><voice>1</voice></note><note><chord/><duration>480</duration><pitch><alter>1</alter><octave>5</octave><step>C</step></pitch><staff>1</staff><type>quarter</type><voice>1</voice></note><note><duration>240</duration><pitch><octave>4</octave><step>D</step></pitch><staff>1</staff><type>eighth</type><voice>1</voice></note><note><chord/><duration>240</duration><pitch><octave>4</octave><step>A</step></pitch><staff>1</staff><type>eighth</type><voice>1</voice></note><note><chord/><duration>240</duration><pitch><octave>5</octave><step>D</step></pitch><staff>1</staff><type>eighth</type><voice>1</voice></note></measure><measure number="27"><note><duration>480</duration><pitch><octave>4</octave><step>D</step></pitch><staff>1</staff><type>quarter</type><voice>1</voice></note><note><chord/><duration>480</duration><pitch><alter>1</alter><octave>4</octave><step>G</step></pitch><staff>1</staff><type>quarter</type><voice>1</voice></note><note><chord/><duration>480</duration><pitch><octave>4</octave><step>B</step></pitch><staff>1</staff><type>quarter</type><voice>1</voice></note><note><duration>240</duration><pitch><alter>1</alter><octave>4</octave><step>C</step></pitch><staff>1</staff><type>eighth</type><voice>1</voice></note><note><chord/><duration>240</duration><pitch><alter>1</alter><octave>4</octave><step>G</step></pitch><staff>1</staff><type>eighth</type><voice>1</voice></note><note><chord/><duration>240</duration><pitch><alter>1</alter><octave>5</octave><step>C</step></pitch><staff>1</staff><type>eighth</type><voice>1</voice></note><note><duration>480</duration><pitch><alter>1</alter><octave>4</octave><step>C</step></pitch><staff>1</staff><type>quarter</type><voice>1</voice></note><note><chord/><duration>480</duration><pitch><alter>1</alter><octave>4</octave><step>F</step></pitch><staff>1</staff><type>quarter</type><voice>1</voice></note><note><chord/><duration>480</duration><pitch><octave>4</octave><step>A</step></pitch><staff>1</staff><type>quarter</type><voice>1</voice></note><note><accidental>natural</accidental><duration>240</duration><pitch><alter>0</alter><octave>4</octave><step>E</step></pitch><staff>1</staff><type>eighth</type><voice>1</voice></note><note><chord/><duration>240</duration><pitch><octave>4</octave><step>B</step></pitch><staff>1</staff><type>eighth</type><voice>1</voice></note><note><accidental>natural</accidental><chord/><duration>240</duration><pitch><alter>0</alter><octave>5</octave><step>E</step></pitch><staff>1</staff><type>eighth</type><voice>1</voice></note></measure><measure number="28"><note><beam>begin</beam><duration>240</duration><pitch><alter>1</alter><octave>5</octave><step>C</step></pitch><staff>1</staff><stem>up</stem><type>eighth</type><voice>1</voice></note><note><beam>begin</beam><chord/><duration>240</duration><pitch><octave>5</octave><step>E</step></pitch><staff>1</staff><stem>up</stem><type>eighth</type><voice>1</voice></note><note><beam>continue</beam><duration>240</duration><pitch><octave>4</octave><step>B</step></pitch><staff>1</staff><stem>up</stem><type>eighth</type><voice>1</voice></note><note><beam>continue</beam><chord/><duration>240</duration><pitch><octave>5</octave><step>D</step></pitch><staff>1</staff><stem>up</stem><type>eighth</type><voice>1</voice></note><note><beam>end</beam><duration>240</duration><pitch><octave>4</octave><step>A</step></pitch><staff>1</staff><stem>up</stem><type>eighth</type><voice>1</voice></note><note><beam>end</beam><chord/><duration>240</duration><pitch><alter>1</alter><octave>5</octave><step>C</step></pitch><staff>1</staff><stem>up</stem><type>eighth</type><voice>1</voice></note><note><duration>480</duration><pitch><octave>4</octave><step>E</step></pitch><staff>1</staff><type>quarter</type><voice>1</voice></note><note><chord/><duration>480</duration><pitch><octave>4</octave><step>A</step></pitch><staff>1</staff><type>quarter</type><voice>1</voice></note><note><chord/><duration>480</duration><pitch><octave>4</octave><step>B</step></pitch><staff>1</staff><type>quarter</type><voice>1</voice></note><note><duration>240</duration><pitch><octave>4</octave><step>E</step></pitch><staff>1</staff><type>eighth</type><voice>1</voice></note><note><chord/><duration>240</duration><pitch><alter>1</alter><octave>4</octave><step>G</step></pitch><staff>1</staff><type>eighth</type><voice>1</voice></note><note><chord/><duration>240</duration><pitch><octave>4</octave><step>B</step></pitch><staff>1</staff><type>eighth</type><voice>1</voice></note><note><chord/><duration>240</duration><pitch><octave>5</octave><step>E</step></pitch><staff>1</staff><type>eighth</type><voice>1</voice></note><backup><duration>1440</duration></backup><note><beam>begin</beam><dot/><duration>720</duration><pitch><octave>4</octave><step>E</step></pitch><staff>1</staff><stem>down</stem><type>quarter</type><voice>2</voice></note></measure><measure number="29"><note><dot/><duration>720</duration><pitch><octave>4</octave><step>E</step></pitch><staff>1</staff><type>quarter</type><voice>1</voice></note><note><chord/><dot/><duration>720</duration><pitch><octave>4</octave><step>A</step></pitch><staff>1</staff><type>quarter</type><voice>1</voice></note><note><chord/><dot/><duration>720</duration><pitch><alter>1</alter><octave>5</octave><step>C</step></pitch><staff>1</staff><type>quarter</type><voice>1</voice></note><note><duration>480</duration><pitch><alter>1</alter><octave>4</octave><step>C</step></pitch><staff>1</staff><type>quarter</type><voice>1</voice></note><note><chord/><duration>480</duration><pitch><octave>4</octave><step>E</step></pitch><staff>1</staff><type>quarter</type><voice>1</voice></note><note><chord/><duration>480</duration><pitch><octave>4</octave><step>A</step></pitch><staff>1</staff><type>quarter</type><voice>1</voice></note><barline location="right"><bar-style>light-heavy</bar-style></barline></measure></part><part id="part-3"><measure number="1"><attributes><clef><line>4</line><sign>F</sign></clef><divisions>480</divisions><key><fifths>3</fifths><mode>major</mode></key><time><beats>6</beats><beat-type>8</beat-type></time></attributes><note><duration>240</duration><pitch><octave>3</octave><step>A</step></pitch><staff>1</staff><type>eighth</type><voice>1</voice></note></measure><measure number="2"><note><duration>480</duration><pitch><octave>3</octave><step>A</step></pitch><staff>1</staff><type>quarter</type><voice>1</voice></note><note><duration>240</duration><pitch><alter>1</alter><octave>4</octave><step>C</step></pitch><staff>1</staff><type>eighth</type><voice>1</voice></note><note><duration>480</duration><pitch><octave>3</octave><step>E</step></pitch><staff>1</staff><type>quarter</type><voice>1</voice></note><note><duration>240</duration><pitch><alter>1</alter><octave>3</octave><step>F</step></pitch><staff>1</staff><type>eighth</type><voice>1</voice></note></measure><measure number="3"><note><duration>480</duration><pitch><octave>3</octave><step>A</step></pitch><staff>1</staff><type>quarter</type><voice>1</voice></note><note><duration>240</duration><pitch><alter>1</alter><octave>4</octave><step>C</step></pitch><staff>1</staff><type>eighth</type><voice>1</voice></note><note><duration>480</duration><pitch><octave>3</octave><step>E</step></pitch><staff>1</staff><type>quarter</type><voice>1</voice></note><note><duration>240</duration><pitch><alter>1</alter><octave>3</octave><step>F</step></pitch><staff>1</staff><type>eighth</type><voice>1</voice></note></measure><measure number="4"><note><beam>begin</beam><duration>240</duration><pitch><octave>3</octave><step>A</step></pitch><staff>1</staff><stem>down</stem><type>eighth</type><voice>1</voice></note><note><beam>continue</beam><duration>240</duration><pitch><alter>1</alter><octave>4</octave><step>C</step></pitch><staff>1</staff><stem>down</stem><type>eighth</type><voice>1</voice></note><note><beam>end</beam><duration>240</duration><pitch><octave>4</octave><step>E</step></pitch><staff>1</staff><stem>down</stem><type>eighth</type><voice>1</voice></note><note><duration>480</duration><pitch><alter>1</alter><octave>4</octave><step>F</step></pitch><staff>1</staff><type>quarter</type><voice>1</voice></note><note><duration>240</duration><pitch><octave>4</octave><step>E</step></pitch><staff>1</staff><type>eighth</type><voice>1</voice></note></measure><measure number="5"><note><accidental>sharp</accidental><dot/><duration>720</duration><pitch><alter>1</alter><octave>4</octave><step>D</step></pitch><staff>1</staff><type>quarter</type><voice>1</voice></note><note><accidental>natural</accidental><dot/><duration>720</duration><pitch><alter>0</alter><octave>4</octave><step>D</step></pitch><staff>1</staff><type>quarter</type><voice>1</voice></note></measure><measure number="6"><note><duration>480</duration><pitch><alter>1</alter><octave>4</octave><step>C</step></pitch><staff>1</staff><type>quarter</type><voice>1</voice></note><note><duration>240</duration><pitch><octave>3</octave><step>A</step></pitch><staff>1</staff><type>eighth</type><voice>1</voice></note><note><duration>480</duration><pitch><octave>3</octave><step>B</step></pitch><staff>1</staff><type>quarter</type><voice>1</voice></note><note><duration>240</duration><pitch><alter>1</alter><octave>3</octave><step>G</step></pitch><staff>1</staff><type>eighth</type><voice>1</voice></note></measure><measure number="7"><note><duration>480</duration><pitch><octave>3</octave><step>A</step></pitch><staff>1</staff><type>quarter</type><voice>1</voice></note><note><duration>240</duration><pitch><alter>1</alter><octave>3</octave><step>F</step></pitch><staff>1</staff><type>eighth</type><voice>1</voice></note><note><duration>480</duration><pitch><alter>1</alter><octave>3</octave><step>G</step></pitch><staff>1</staff><type>quarter</type><voice>1</voice></note><note><duration>240</duration><pitch><octave>3</octave><step>E</step></pitch><staff>1</staff><type>eighth</type><voice>1</voice></note></measure><measure number="8"><note><dot/><duration>720</duration><pitch><alter>1</alter><octave>2</octave><step>F</step></pitch><staff>1</staff><type>quarter</type><voice>1</voice></note><note><chord/><dot/><duration>720</duration><pitch><alter>1</alter><octave>3</octave><step>F</step></pitch><staff>1</staff><type>quarter</type><voice>1</voice></note><note><accidental>natural</accidental><dot/><duration>720</duration><pitch><alter>0</alter><octave>2</octave><step>E</step></pitch><staff>1</staff><type>quarter</type><voice>1</voice></note><note><accidental>natural</accidental><chord/><dot/><duration>720</duration><pitch><alter>0</alter><octave>3</octave><step>E</step></pitch><staff>1</staff><type>quarter</type><voice>1</voice></note></measure><measure number="9"><note><dot/><duration>720</duration><pitch><octave>2</octave><step>D</step></pitch><staff>1</staff><type>quarter</type><voice>1</voice></note><note><chord/><dot/><duration>720</duration><pitch><octave>3</octave><step>D</step></pitch><staff>1</staff><type>quarter</type><voice>1</voice></note><note><accidental>sharp</accidental><dot/><duration>720</duration><pitch><alter>1</alter><octave>2</octave><step>D</step></pitch><staff>1</staff><type>quarter</type><voice>1</voice></note><note><accidental>sharp</accidental><chord/><dot/><duration>720</duration><pitch><alter>1</alter><octave>3</octave><step>D</step></pitch><staff>1</staff><type>quarter</type><voice>1</voice></note></measure><measure number="10"><note><beam>begin</beam><dot/><duration>360</duration><pitch><octave>4</octave><step>E</step></pitch><staff>1</staff><stem>up</stem><type>eighth</type><voice>1</voice></note><note><beam>continue</beam><duration>120</duration><pitch><octave>4</octave><step>D</step></pitch><staff>1</staff><stem>up</stem><type>16th</type><voice>1</voice></note><note><beam>end</beam><duration>240</duration><pitch><alter>1</alter><octave>4</octave><step>C</step></pitch><staff>1</staff><stem>up</stem><type>eighth</type><voice>1</voice></note><note><beam>begin</beam><dot/><duration>360</duration><pitch><octave>4</octave><step>E</step></pitch><staff>1</staff><stem>up</stem><type>eighth</type><voice>1</voice></note><note><beam>continue</beam><duration>120</duration><pitch><octave>4</octave><step>D</step></pitch><staff>1</staff><stem>up</stem><type>16th</type><voice>1</voice></note><note><beam>end</beam><duration>240</duration><pitch><alter>1</alter><octave>4</octave><step>C</step></pitch><staff>1</staff><stem>up</stem><type>eighth</type><voice>1</voice></note><backup><duration>1440</duration></backup><note><beam>begin</beam><dot/><duration>720</duration><pitch><octave>3</octave><step>E</step></pitch><staff>1</staff><stem>down</stem><type>quarter</type><voice>2</voice></note><note><beam>begin</beam><dot/><duration>720</duration><pitch><octave>3</octave><step>E</step></pitch><staff>1</staff><stem>down</stem><type>quarter</type><voice>2</voice></note></measure><measure number="11"><note><beam>begin</beam><dot/><duration>360</duration><pitch><octave>2</octave><step>E</step></pitch><staff>1</staff><stem>up</stem><type>eighth</type><voice>1</voice></note><note><beam>begin</beam><chord/><dot/><duration>360</duration><pitch><octave>3</octave><step>E</step></pitch><staff>1</staff><stem>up</stem><type>eighth</type><voice>1</voice></note><note><beam>continue</beam><duration>120</duration><pitch><octave>2</octave><step>E</step></pitch><staff>1</staff><stem>up</stem><type>16th</type><voice>1</voice></note><note><beam>continue</beam><chord/><duration>120</duration><pitch><octave>3</octave><step>E</step></pitch><staff>1</staff><stem>up</stem><type>16th</type><voice>1</voice></note><note><beam>end</beam><duration>240</duration><pitch><octave>2</octave><step>E</step></pitch><staff>1</staff><stem>up</stem><type>eighth</type><voice>1</voice></note><note><beam>end</beam><chord/><duration>240</duration><pitch><octave>3</octave><step>E</step></pitch><staff>1</staff><stem>up</stem><type>eighth</type><voice>1</voice></note><note><beam>begin</beam><dot/><duration>360</duration><pitch><octave>2</octave><step>E</step></pitch><staff>1</staff><stem>up</stem><type>eighth</type><voice>1</voice></note><note><beam>begin</beam><chord/><dot/><duration>360</duration><pitch><octave>3</octave><step>E</step></pitch><staff>1</staff><stem>up</stem><type>eighth</type><voice>1</voice></note><note><beam>continue</beam><duration>120</duration><pitch><octave>2</octave><step>E</step></pitch><staff>1</staff><stem>up</stem><type>16th</type><voice>1</voice></note><note><beam>continue</beam><chord/><duration>120</duration><pitch><octave>3</octave><step>E</step></pitch><staff>1</staff><stem>up</stem><type>16th</type><voice>1</voice></note><note><beam>end</beam><duration>240</duration><pitch><octave>2</octave><step>E</step></pitch><staff>1</staff><stem>up</stem><type>eighth</type><voice>1</voice></note><note><beam>end</beam><chord/><duration>240</duration><pitch><octave>3</octave><step>E</step></pitch><staff>1</staff><stem>up</stem><type>eighth</type><voice>1</voice></note></measure><measure number="12"><barline location="right"><bar-style>light-light</bar-style></barline><note><dot/><duration>720</duration><notations><tied type="start"/></notations><pitch><octave>2</octave><step>A</step></pitch><staff>1</staff><tie type="start"/><type>quarter</type><voice>1</voice></note><note><chord/><dot/><duration>720</duration><notations><tied type="start"/></notations><pitch><octave>3</octave><step>A</step></pitch><staff>1</staff><tie type="start"/><type>quarter</type><voice>1</voice></note><note><duration>480</duration><notations><tied type="stop"/></notations><pitch><octave>2</octave><step>A</step></pitch><staff>1</staff><tie type="stop"/><type>quarter</type><voice>1</voice></note><note><chord/><duration>480</duration><notations><tied type="stop"/></notations><pitch><octave>3</octave><step>A</step></pitch><staff>1</staff><tie type="stop"/><type>quarter</type><voice>1</voice></note></measure><measure number="13"><note><duration>240</duration><rest/><staff>1</staff><type>eighth</type><voice>1</voice></note></measure><measure number="14"><note><duration>480</duration><pitch><octave>1</octave><step>A</step></pitch><staff>1</staff><stem>up</stem><type>quarter</type><voice>1</voice></note><note><chord/><duration>480</duration><pitch><octave>2</octave><step>A</step></pitch><staff>1</staff><stem>up</stem><type>quarter</type><voice>1</voice></note><note><chord/><duration>480</duration><pitch><octave>3</octave><step>E</step></pitch><staff>1</staff><stem>up</stem><type>quarter</type><voice>1</voice></note><note><chord/><duration>480</duration><pitch><octave>3</octave><step>A</step></pitch><staff>1</staff><stem>up</stem><type>quarter</type><voice>1</voice></note><note><duration>240</duration><pitch><octave>1</octave><step>A</step></pitch><staff>1</staff><type>eighth</type><voice>1</voice></note><note><chord/><duration>240</duration><pitch><octave>2</octave><step>A</step></pitch><staff>1</staff><type>eighth</type><voice>1</voice></note><note><chord/><duration>240</duration><pitch><octave>3</octave><step>E</step></pitch><staff>1</staff><type>eighth</type><voice>1</voice></note><note><chord/><duration>240</duration><pitch><octave>3</octave><step>A</step></pitch><staff>1</staff><type>eighth</type><voice>1</voice></note><note><duration>480</duration><pitch><octave>1</octave><step>A</step></pitch><staff>1</staff><type>quarter</type><voice>1</voice></note><note><chord/><duration>480</duration><pitch><octave>2</octave><step>A</step></pitch><staff>1</staff><type>quarter</type><voice>1</voice></note><note><chord/><duration>480</duration><pitch><octave>3</octave><step>E</step></pitch><staff>1</staff><type>quarter</type><voice>1</voice></note><note><chord/><duration>480</duration><pitch><octave>3</octave><step>A</step></pitch><staff>1</staff><type>quarter</type><voice>1</voice></note><note><duration>240</duration><pitch><octave>1</octave><step>A</step></pitch><staff>1</staff><type>eighth</type><voice>1</voice></note><note><chord/><duration>240</duration><pitch><octave>2</octave><step>A</step></pitch><staff>1</staff><type>eighth</type><voice>1</voice></note><note><chord/><duration>240</duration><pitch><alter>1</alter><octave>3</octave><step>F</step></pitch><staff>1</staff><type>eighth</type><voice>1</voice></note><note><chord/><duration>240</duration><pitch><octave>3</octave><step>A</step></pitch><staff>1</staff><type>eighth</type><voice>1</voice></note></measure><measure number="15"><note><duration>480</duration><pitch><octave>1</octave><step>A</step></pitch><staff>1</staff><stem>up</stem><type>quarter</type><voice>1</voice></note><note><chord/><duration>480</duration><pitch><octave>2</octave><step>A</step></pitch><staff>1</staff><stem>up</stem><type>quarter</type><voice>1</voice></note><note><chord/><duration>480</duration><pitch><octave>3</octave><step>E</step></pitch><staff>1</staff><stem>up</stem><type>quarter</type><voice>1</voice></note><note><chord/><duration>480</duration><pitch><octave>3</octave><step>A</step></pitch><staff>1</staff><stem>up</stem><type>quarter</type><voice>1</voice></note><note><duration>240</duration><pitch><octave>1</octave><step>A</step></pitch><staff>1</staff><type>eighth</type><voice>1</voice></note><note><chord/><duration>240</duration><pitch><octave>2</octave><step>A</step></pitch><staff>1</staff><type>eighth</type><voice>1</voice></note><note><chord/><duration>240</duration><pitch><octave>3</octave><step>E</step></pitch><staff>1</staff><type>eighth</type><voice>1</voice></note><note><chord/><duration>240</duration><pitch><octave>3</octave><step>A</step></pitch><staff>1</staff><type>eighth</type><voice>1</voice></note><note><duration>480</duration><pitch><octave>1</octave><step>A</step></pitch><staff>1</staff><type>quarter</type><voice>1</voice></note><note><chord/><duration>480</duration><pitch><octave>2</octave><step>A</step></pitch><staff>1</staff><type>quarter</type><voice>1</voice></note><note><chord/><duration>480</duration><pitch><octave>3</octave><step>E</step></pitch><staff>1</staff><type>quarter</type><voice>1</voice></note><note><chord/><duration>480</duration><pitch><octave>3</octave><step>A</step></pitch><staff>1</staff><type>quarter</type><voice>1</voice></note><note><duration>240</duration><pitch><octave>1</octave><step>A</step></pitch><staff>1</staff><type>eighth</type><voice>1</voice></note><note><chord/><duration>240</duration><pitch><octave>2</octave><step>A</step></pitch><staff>1</staff><type>eighth</type><voice>1</voice></note><note><chord/><duration>240</duration><pitch><alter>1</alter><octave>3</octave><step>F</step></pitch><staff>1</staff><type>eighth</type><voice>1</voice></note><note><chord/><duration>240</duration><pitch><octave>3</octave><step>A</step></pitch><staff>1</staff><type>eighth</type><voice>1</voice></note></measure><measure number="16"><note><duration>480</duration><pitch><octave>1</octave><step>A</step></pitch><staff>1</staff><type>quarter</type><voice>1</voice></note><note><chord/><duration>480</duration><pitch><octave>2</octave><step>A</step></pitch><staff>1</staff><type>quarter</type><voice>1</voice></note><note><duration>240</duration><pitch><alter>1</alter><octave>2</octave><step>C</step></pitch><staff>1</staff><type>eighth</type><voice>1</voice></note><note><chord/><duration>240</duration><pitch><alter>1</alter><octave>3</octave><step>C</step></pitch><staff>1</staff><type>eighth</type><voice>1</voice></note><note><duration>480</duration><pitch><octave>2</octave><step>E</step></pitch><staff>1</staff><stem>up</stem><type>quarter</type><voice>1</voice></note><note><chord/><duration>480</duration><pitch><octave>3</octave><step>E</step></pitch><staff>1</staff><stem>up</stem><type>quarter</type><voice>1</voice></note><note><duration>240</duration><pitch><octave>2</octave><step>E</step></pitch><staff>1</staff><type>eighth</type><voice>1</voice></note><note><chord/><duration>240</duration><pitch><octave>3</octave><step>E</step></pitch><staff>1</staff><type>eighth</type><voice>1</voice></note></measure><measure number="17"><note><dot/><duration>720</duration><pitch><octave>1</octave><step>A</step></pitch><staff>1</staff><type>quarter</type><voice>1</voice></note><note><chord/><dot/><duration>720</duration><pitch><octave>2</octave><step>A</step></pitch><staff>1</staff><type>quarter</type><voice>1</voice></note><note><duration>480</duration><pitch><octave>2</octave><step>A</step></pitch><staff>1</staff><type>quarter</type><voice>1</voice></note><note><chord/><duration>480</duration><pitch><octave>3</octave><step>A</step></pitch><staff>1</staff><type>quarter</type><voice>1</voice></note><note><duration>240</duration><pitch><octave>2</octave><step>A</step></pitch><staff>1</staff><type>eighth</type><voice>1</voice></note><note><chord/><duration>240</duration><pitch><octave>3</octave><step>A</step></pitch><staff>1</staff><type>eighth</type><voice>1</voice></note></measure><measure number="18"><note><duration>480</duration><pitch><alter>1</alter><octave>2</octave><step>F</step></pitch><staff>1</staff><type>quarter</type><voice>1</voice></note><note><chord/><duration>480</duration><pitch><alter>1</alter><octave>3</octave><step>F</step></pitch><staff>1</staff><type>quarter</type><voice>1</voice></note><note><duration>240</duration><rest/><staff>1</staff><type>eighth</type><voice>1</voice></note><note><duration>480</duration><pitch><alter>1</alter><octave>2</octave><step>C</step></pitch><staff>1</staff><type>quarter</type><voice>1</voice></note><note><chord/><duration>480</duration><pitch><alter>1</alter><octave>3</octave><step>C</step></pitch><staff>1</staff><type>quarter</type><voice>1</voice></note><note><duration>240</duration><rest/><staff>1</staff><type>eighth</type><voice>1</voice></note></measure><measure number="19"><note><duration>480</duration><pitch><octave>2</octave><step>D</step></pitch><staff>1</staff><type>quarter</type><voice>1</voice></note><note><chord/><duration>480</duration><pitch><octave>3</octave><step>D</step></pitch><staff>1</staff><type>quarter</type><voice>1</voice></note><note><duration>240</duration><rest/><staff>1</staff><type>eighth</type><voice>1</voice></note><note><duration>480</duration><pitch><octave>1</octave><step>A</step></pitch><staff>1</staff><type>quarter</type><voice>1</voice></note><note><chord/><duration>480</duration><pitch><octave>2</octave><step>A</step></pitch><staff>1</staff><type>quarter</type><voice>1</voice></note><note><duration>240</duration><pitch><alter>1</alter><octave>2</octave><step>C</step></pitch><staff>1</staff><type>eighth</type><voice>1</voice></note><note><chord/><duration>240</duration><pitch><alter>1</alter><octave>3</octave><step>C</step></pitch><staff>1</staff><type>eighth</type><voice>1</voice></note></measure><measure number="20"><note><duration>480</duration><pitch><octave>1</octave><step>B</step></pitch><staff>1</staff><type>quarter</type><voice>1</voice></note><note><chord/><duration>480</duration><pitch><octave>2</octave><step>B</step></pitch><staff>1</staff><type>quarter</type><voice>1</voice></note><note><duration>240</duration><pitch><octave>1</octave><step>B</step></pitch><staff>1</staff><type>eighth</type><voice>1</voice></note><note><chord/><duration>240</duration><pitch><octave>2</octave><step>B</step></pitch><staff>1</staff><type>eighth</type><voice>1</voice></note><note><duration>480</duration><pitch><octave>2</octave><step>E</step></pitch><staff>1</staff><type>quarter</type><voice>1</voice></note><note><chord/><duration>480</duration><pitch><octave>3</octave><step>E</step></pitch><staff>1</staff><type>quarter</type><voice>1</voice></note><note><duration>240</duration><pitch><octave>2</octave><step>E</step></pitch><staff>1</staff><type>eighth</type><voice>1</voice></note><note><chord/><duration>240</duration><pitch><octave>3</octave><step>E</step></pitch><staff>1</staff><type>eighth</type><voice>1</voice></note></measure><measure number="21"><note><dot/><duration>720</duration><pitch><octave>2</octave><step>A</step></pitch><staff>1</staff><type>quarter</type><voice>1</voice></note><note><duration>480</duration><pitch><octave>2</octave><step>A</step></pitch><staff>1</staff><type>quarter</type><voice>1</voice></note><note><duration>240</duration><pitch><alter>1</alter><octave>3</octave><step>C</step></pitch><staff>1</staff><type>eighth</type><voice>1</voice></note></measure><measure number="22"><note><duration>480</duration><pitch><alter>1</alter><octave>3</octave><step>F</step></pitch><staff>1</staff><type>quarter</type><voice>1</voice></note><note><duration>240</duration><pitch><octave>3</octave><step>A</step></pitch><staff>1</staff><type>eighth</type><voice>1</voice></note><note><duration>480</duration><pitch><alter>1</alter><octave>4</octave><step>C</step></pitch><staff>1</staff><type>quarter</type><voice>1</voice></note><note><duration>240</duration><pitch><alter>1</alter><octave>3</octave><step>C</step></pitch><staff>1</staff><type>eighth</type><voice>1</voice></note></measure><measure number="23"><note><duration>480</duration><pitch><octave>1</octave><step>B</step></pitch><staff>1</staff><stem>up</stem><type>quarter</type><voice>1</voice></note><note><chord/><duration>480</duration><pitch><octave>2</octave><step>B</step></pitch><staff>1</staff><stem>up</stem><type>quarter</type><voice>1</voice></note><note><duration>240</duration><pitch><alter>1</alter><octave>1</octave><step>G</step></pitch><staff>1</staff><type>eighth</type><voice>1</voice></note><note><chord/><duration>240</duration><pitch><alter>1</alter><octave>2</octave><step>G</step></pitch><staff>1</staff><type>eighth</type><voice>1</voice></note><note><duration>480</duration><pitch><octave>1</octave><step>A</step></pitch><staff>1</staff><type>quarter</type><voice>1</voice></note><note><chord/><duration>480</duration><pitch><octave>2</octave><step>A</step></pitch><staff>1</staff><type>quarter</type><voice>1</voice></note><note><duration>240</duration><pitch><alter>1</alter><octave>2</octave><step>C</step></pitch><staff>1</staff><type>eighth</type><voice>1</voice></note><note><chord/><duration>240</duration><pitch><alter>1</alter><octave>3</octave><step>C</step></pitch><staff>1</staff><type>eighth</type><voice>1</voice></note></measure><measure number="24"><note><duration>480</duration><pitch><alter>1</alter><octave>2</octave><step>F</step></pitch><staff>1</staff><type>quarter</type><voice>1</voice></note><note><chord/><duration>480</duration><pitch><alter>1</alter><octave>3</octave><step>F</step></pitch><staff>1</staff><type>quarter</type><voice>1</voice></note><note><duration>240</duration><pitch><alter>1</alter><octave>2</octave><step>F</step></pitch><staff>1</staff><type>eighth</type><voice>1</voice></note><note><chord/><duration>240</duration><pitch><alter>1</alter><octave>3</octave><step>F</step></pitch><staff>1</staff><type>eighth</type><voice>1</voice></note><note><duration>480</duration><pitch><octave>2</octave><step>E</step></pitch><staff>1</staff><type>quarter</type><voice>1</voice></note><note><chord/><duration>480</duration><pitch><octave>3</octave><step>E</step></pitch><staff>1</staff><type>quarter</type><voice>1</voice></note><note><duration>240</duration><pitch><octave>2</octave><step>E</step></pitch><staff>1</staff><type>eighth</type><voice>1</voice></note><note><chord/><duration>240</duration><pitch><octave>3</octave><step>E</step></pitch><staff>1</staff><type>eighth</type><voice>1</voice></note></measure><measure number="25"><note><dot/><duration>720</duration><pitch><octave>1</octave><step>A</step></pitch><staff>1</staff><type>quarter</type><voice>1</voice></note><note><chord/><dot/><duration>720</duration><pitch><octave>2</octave><step>A</step></pitch><staff>1</staff><type>quarter</type><voice>1</voice></note><note><duration>480</duration><pitch><octave>2</octave><step>A</step></pitch><staff>1</staff><type>quarter</type><voice>1</voice></note><note><chord/><duration>480</duration><pitch><octave>3</octave><step>A</step></pitch><staff>1</staff><type>quarter</type><voice>1</voice></note><note><duration>240</duration><pitch><alter>1</alter><octave>2</octave><step>F</step></pitch><staff>1</staff><type>eighth</type><voice>1</voice></note><note><chord/><duration>240</duration><pitch><alter>1</alter><octave>3</octave><step>F</step></pitch><staff>1</staff><type>eighth</type><voice>1</voice></note></measure><measure number="26"><note><duration>480</duration><pitch><octave>2</octave><step>B</step></pitch><staff>1</staff><type>quarter</type><voice>1</voice></note><note><chord/><duration>480</duration><pitch><octave>3</octave><step>B</step></pitch><staff>1</staff><type>quarter</type><voice>1</voice></note><note><duration>240</duration><pitch><alter>1</alter><octave>2</octave><step>G</step></pitch><staff>1</staff><type>eighth</type><voice>1</voice></note><note><chord/><duration>240</duration><pitch><alter>1</alter><octave>3</octave><step>G</step></pitch><staff>1</staff><type>eighth</type><voice>1</voice></note><note><duration>480</duration><pitch><octave>2</octave><step>A</step></pitch><staff>1</staff><type>quarter</type><voice>1</voice></note><note><chord/><duration>480</duration><pitch><octave>3</octave><step>A</step></pitch><staff>1</staff><type>quarter</type><voice>1</voice></note><note><duration>240</duration><pitch><alter>1</alter><octave>2</octave><step>F</step></pitch><staff>1</staff><type>eighth</type><voice>1</voice></note><note><chord/><duration>240</duration><pitch><alter>1</alter><octave>3</octave><step>F</step></pitch><staff>1</staff><type>eighth</type><voice>1</voice></note></measure><measure number="27"><note><duration>480</duration><pitch><alter>1</alter><octave>2</octave><step>G</step></pitch><staff>1</staff><type>quarter</type><voice>1</voice></note><note><chord/><duration>480</duration><pitch><alter>1</alter><octave>3</octave><step>G</step></pitch><staff>1</staff><type>quarter</type><voice>1</voice></note><note><accidental>sharp</accidental><duration>240</duration><pitch><alter>1</alter><octave>2</octave><step>E</step></pitch><staff>1</staff><type>eighth</type><voice>1</voice></note><note><accidental>sharp</accidental><chord/><duration>240</duration><pitch><alter>1</alter><octave>3</octave><step>E</step></pitch><staff>1</staff><type>eighth</type><voice>1</voice></note><note><duration>480</duration><pitch><alter>1</alter><octave>2</octave><step>F</step></pitch><staff>1</staff><type>quarter</type><voice>1</voice></note><note><chord/><duration>480</duration><pitch><alter>1</alter><octave>3</octave><step>F</step></pitch><staff>1</staff><type>quarter</type><voice>1</voice></note><note><duration>240</duration><pitch><alter>1</alter><octave>1</octave><step>G</step></pitch><staff>1</staff><type>eighth</type><voice>1</voice></note><note><chord/><duration>240</duration><pitch><alter>1</alter><octave>2</octave><step>G</step></pitch><staff>1</staff><type>eighth</type><voice>1</voice></note></measure><measure number="28"><note><duration>240</duration><pitch><octave>1</octave><step>A</step></pitch><staff>1</staff><type>eighth</type><voice>1</voice></note><note><chord/><duration>240</duration><pitch><octave>2</octave><step>A</step></pitch><staff>1</staff><type>eighth</type><voice>1</voice></note><note><duration>240</duration><pitch><octave>1</octave><step>B</step></pitch><staff>1</staff><type>eighth</type><voice>1</voice></note><note><chord/><duration>240</duration><pitch><octave>2</octave><step>B</step></pitch><staff>1</staff><type>eighth</type><voice>1</voice></note><note><duration>240</duration><pitch><alter>1</alter><octave>2</octave><step>C</step></pitch><staff>1</staff><type>eighth</type><voice>1</voice></note><note><chord/><duration>240</duration><pitch><alter>1</alter><octave>3</octave><step>C</step></pitch><staff>1</staff><type>eighth</type><voice>1</voice></note><note><duration>480</duration><pitch><octave>2</octave><step>E</step></pitch><staff>1</staff><type>quarter</type><voice>1</voice></note><note><chord/><duration>480</duration><pitch><octave>3</octave><step>E</step></pitch><staff>1</staff><type>quarter</type><voice>1</voice></note><note><duration>240</duration><pitch><octave>2</octave><step>E</step></pitch><staff>1</staff><type>eighth</type><voice>1</voice></note><note><chord/><duration>240</duration><pitch><octave>3</octave><step>E</step></pitch><staff>1</staff><type>eighth</type><voice>1</voice></note></measure><measure number="29"><note><dot/><duration>720</duration><pitch><octave>2</octave><step>A</step></pitch><staff>1</staff><type>quarter</type><voice>1</voice></note><note><chord/><dot/><duration>720</duration><pitch><octave>3</octave><step>A</step></pitch><staff>1</staff><type>quarter</type><voice>1</voice></note><note><duration>480</duration><pitch><octave>2</octave><step>A</step></pitch><staff>1</staff><type>quarter</type><voice>1</voice></note><note><chord/><duration>480</duration><pitch><octave>3</octave><step>A</step></pitch><staff>1</staff><type>quarter</type><voice>1</voice></note><barline location="right"><bar-style>light-heavy</bar-style></barline></measure></part></score-partwise>
